# xmcd
#
# Track frame offsets: 
#        150
#        14587
#        29731
#        43314
#        67100
#        85701
#        99767
#        123630
#        146777
#        162370
#        178628
#
# Disc length: 2585 seconds
#
# Revision: 0
# Processed by: cddbd v1.4PL0 Copyright (c) Steve Scherf et al.
# Submitted via: ExactAudioCopy v0.90b4
#
DISCID=9d0a170b
DTITLE=Fernando Noronha - Heartfull of Blues
DYEAR=1998
DGENRE=Blues
TTITLE0=Ain't No Fool
TTITLE1=Groove For The World
TTITLE2=Kickin' Ass
TTITLE3=Bad Boy
TTITLE4=I Ain't No Saint
TTITLE5=It's You
TTITLE6=Howlin' For My Darling
TTITLE7=Brand New Woman
TTITLE8=Little Girl
TTITLE9=Sugar Coated Love
TTITLE10=Thunder Shuffle
EXTD=
EXTT0=
EXTT1=
EXTT2=
EXTT3=
EXTT4=
EXTT5=
EXTT6=
EXTT7=
EXTT8=
EXTT9=
EXTT10=
PLAYORDER=
